{
	"accessors" : 
	[
		{
			"bufferView" : 2,
			"byteOffset" : 0,
			"componentType" : 5126,
			"count" : 7620,
			"max" : 
			[
				1,
				1,
				1,
				1
			],
			"min" : 
			[
				5.692175545846112e-05,
				0.006584956776350737,
				0.006584956776350737,
				1
			],
			"name" : "accessor_color_m0-PolyPaper5_-2053554",
			"type" : "VEC4"
		},
		{
			"bufferView" : 2,
			"byteOffset" : 121920,
			"componentType" : 5126,
			"count" : 7980,
			"max" : 
			[
				1,
				1,
				1,
				1
			],
			"min" : 
			[
				5.692175545846112e-05,
				0.006584956776350737,
				0.006584956776350737,
				1
			],
			"name" : "accessor_color_m1-PolyPaper5_-2053560",
			"type" : "VEC4"
		},
		{
			"bufferView" : 2,
			"byteOffset" : 249600,
			"componentType" : 5126,
			"count" : 5896,
			"max" : 
			[
				1,
				1,
				1,
				1
			],
			"min" : 
			[
				5.692175545846112e-05,
				0.006584956776350737,
				0.006584956776350737,
				1
			],
			"name" : "accessor_color_m2-PolyPaper17_-2053566",
			"type" : "VEC4"
		},
		{
			"bufferView" : 0,
			"byteOffset" : 0,
			"componentType" : 5123,
			"count" : 12072,
			"max" : 
			[
				7619
			],
			"min" : 
			[
				0
			],
			"name" : "accessor_indices_0_m0-PolyPaper5_-2053554",
			"type" : "SCALAR"
		},
		{
			"bufferView" : 0,
			"byteOffset" : 24144,
			"componentType" : 5123,
			"count" : 12696,
			"max" : 
			[
				7979
			],
			"min" : 
			[
				0
			],
			"name" : "accessor_indices_0_m1-PolyPaper5_-2053560",
			"type" : "SCALAR"
		},
		{
			"bufferView" : 0,
			"byteOffset" : 49536,
			"componentType" : 5123,
			"count" : 9240,
			"max" : 
			[
				5895
			],
			"min" : 
			[
				0
			],
			"name" : "accessor_indices_0_m2-PolyPaper17_-2053566",
			"type" : "SCALAR"
		},
		{
			"bufferView" : 1,
			"byteOffset" : 91440,
			"componentType" : 5126,
			"count" : 7620,
			"max" : 
			[
				0.9999894,
				0.999997,
				0.9996163
			],
			"min" : 
			[
				-0.9988278,
				-0.9999884999999999,
				-0.9996161
			],
			"name" : "accessor_normal_m0-PolyPaper5_-2053554",
			"type" : "VEC3"
		},
		{
			"bufferView" : 1,
			"byteOffset" : 278640,
			"componentType" : 5126,
			"count" : 7980,
			"max" : 
			[
				0.9993231,
				0.9999984,
				0.9999557
			],
			"min" : 
			[
				-0.9993231,
				-0.9999878,
				-0.9997047999999999
			],
			"name" : "accessor_normal_m1-PolyPaper5_-2053560",
			"type" : "VEC3"
		},
		{
			"bufferView" : 1,
			"byteOffset" : 445152,
			"componentType" : 5126,
			"count" : 5896,
			"max" : 
			[
				0.9995578000000001,
				0.9999762,
				0.9999054000000001
			],
			"min" : 
			[
				-0.9999142,
				-0.9999905,
				-0.9999768
			],
			"name" : "accessor_normal_m2-PolyPaper17_-2053566",
			"type" : "VEC3"
		},
		{
			"bufferView" : 1,
			"byteOffset" : 0,
			"componentType" : 5126,
			"count" : 7620,
			"max" : 
			[
				0.9672452,
				0.8701687,
				2.464508
			],
			"min" : 
			[
				-2.080783,
				-0.02933546,
				-1.515593
			],
			"name" : "accessor_position_m0-PolyPaper5_-2053554",
			"type" : "VEC3"
		},
		{
			"bufferView" : 1,
			"byteOffset" : 182880,
			"componentType" : 5126,
			"count" : 7980,
			"max" : 
			[
				1.22528,
				1.815509,
				3.781602
			],
			"min" : 
			[
				-1.875369,
				-0.1384839,
				-1.139384
			],
			"name" : "accessor_position_m1-PolyPaper5_-2053560",
			"type" : "VEC3"
		},
		{
			"bufferView" : 1,
			"byteOffset" : 374400,
			"componentType" : 5126,
			"count" : 5896,
			"max" : 
			[
				0.3626483,
				1.205813,
				3.720145
			],
			"min" : 
			[
				-2.295072,
				-0.1420557,
				-1.263983
			],
			"name" : "accessor_position_m2-PolyPaper17_-2053566",
			"type" : "VEC3"
		}
	],
	"asset" : 
	{
		"copyright" : "Unknown",
		"generator" : "glTF 1-to-2 Upgrader for Google Blocks",
		"version" : "2.0"
	},
	"bufferViews" : 
	[
		{
			"buffer" : 0,
			"byteLength" : 68016,
			"byteOffset" : 0,
			"name" : "ushortBufferView",
			"target" : 34963
		},
		{
			"buffer" : 0,
			"byteLength" : 515904,
			"byteOffset" : 68016,
			"byteStride" : 12,
			"name" : "vec3BufferView",
			"target" : 34962
		},
		{
			"buffer" : 0,
			"byteLength" : 343936,
			"byteOffset" : 583920,
			"byteStride" : 16,
			"name" : "vec4BufferView",
			"target" : 34962
		}
	],
	"buffers" : 
	[
		{
			"byteLength" : 927856,
			"name" : "model",
			"uri" : "model.bin"
		}
	],
	"materials" : 
	[
		{
			"alphaMode" : "OPAQUE",
			"doubleSided" : false,
			"name" : "BlocksPaper",
			"pbrMetallicRoughness" : 
			{
				"baseColorFactor" : 
				[
					1,
					1,
					1,
					1
				],
				"metallicFactor" : 0,
				"roughnessFactor" : 0.6
			}
		},
		{
			"alphaMode" : "BLEND",
			"doubleSided" : false,
			"name" : "BlocksGlass",
			"pbrMetallicRoughness" : 
			{
				"baseColorFactor" : 
				[
					0.2,
					0.2,
					1,
					0.3
				],
				"metallicFactor" : 1,
				"roughnessFactor" : 0.4
			}
		},
		{
			"alphaMode" : "OPAQUE",
			"doubleSided" : true,
			"name" : "BlocksGem",
			"pbrMetallicRoughness" : 
			{
				"baseColorFactor" : 
				[
					1,
					0.4,
					1,
					1
				],
				"metallicFactor" : 0,
				"roughnessFactor" : 0.1
			}
		}
	],
	"meshes" : 
	[
		{
			"name" : "mesh_m0-PolyPaper5_-2053554",
			"primitives" : 
			[
				{
					"attributes" : 
					{
						"COLOR_0" : 0,
						"NORMAL" : 6,
						"POSITION" : 9
					},
					"indices" : 3,
					"material" : 0,
					"mode" : 4
				}
			]
		},
		{
			"name" : "mesh_m1-PolyPaper5_-2053560",
			"primitives" : 
			[
				{
					"attributes" : 
					{
						"COLOR_0" : 1,
						"NORMAL" : 7,
						"POSITION" : 10
					},
					"indices" : 4,
					"material" : 0,
					"mode" : 4
				}
			]
		},
		{
			"name" : "mesh_m2-PolyPaper17_-2053566",
			"primitives" : 
			[
				{
					"attributes" : 
					{
						"COLOR_0" : 2,
						"NORMAL" : 8,
						"POSITION" : 11
					},
					"indices" : 5,
					"material" : 0,
					"mode" : 4
				}
			]
		}
	],
	"nodes" : 
	[
		{
			"matrix" : 
			[
				1,
				0,
				0,
				0,
				0,
				1,
				0,
				0,
				0,
				0,
				1,
				0,
				0,
				0,
				0,
				1
			],
			"mesh" : 1,
			"name" : "node_MeshObject-294089728-PolyPaper5"
		},
		{
			"matrix" : 
			[
				1,
				0,
				0,
				0,
				0,
				1,
				0,
				0,
				0,
				0,
				1,
				0,
				0,
				0,
				0,
				1
			],
			"mesh" : 0,
			"name" : "node_MeshObject-866168832-PolyPaper5"
		},
		{
			"matrix" : 
			[
				1,
				0,
				0,
				0,
				0,
				1,
				0,
				0,
				0,
				0,
				1,
				0,
				0,
				0,
				0,
				1
			],
			"mesh" : 2,
			"name" : "node_MeshObject277989376-PolyPaper17"
		}
	],
	"scene" : 0,
	"scenes" : 
	[
		{
			"extras" : {},
			"name" : "defaultScene",
			"nodes" : 
			[
				1,
				0,
				2
			]
		}
	]
}